HIERARCHY
ROOT Hips
{
	OFFSET -3.958830 18.904000 13.208200
	CHANNELS 6 Xposition Yposition Zposition Zrotation Yrotation Xrotation 
	JOINT LHipJoint
	{
		OFFSET 0.000000 0.000000 0.000000
		CHANNELS 3 Zrotation Yrotation Xrotation
		JOINT LeftUpLeg
		{
			OFFSET 1.800000 -1.400000 0.085000
			CHANNELS 3 Zrotation Yrotation Xrotation
			JOINT LeftLeg
			{
				OFFSET 2.215000 -6.000000 0.000000
				CHANNELS 3 Zrotation Yrotation Xrotation
				JOINT LeftFoot
				{
					OFFSET 2.500000 -6.900000 0.000000
					CHANNELS 3 Zrotation Yrotation Xrotation
					JOINT LeftToeBase
					{
						OFFSET 0.200000 -0.500000 1.950000
						CHANNELS 3 Zrotation Yrotation Xrotation
						End Site
						{
							OFFSET 0.000000 0.000000 0.000000
						}
					}
				}
			}
		}
	}
	JOINT RHipJoint
	{
		OFFSET 0.000000 0.000000 0.000000
		CHANNELS 3 Zrotation Yrotation Xrotation
		JOINT RightUpLeg
		{
			OFFSET -1.800000 -1.400000 0.085000
			CHANNELS 3 Zrotation Yrotation Xrotation
			JOINT RightLeg
			{
				OFFSET -2.215000 -6.000000 0.000000
				CHANNELS 3 Zrotation Yrotation Xrotation
				JOINT RightFoot
				{
					OFFSET -2.500000 -6.900000 0.000000
					CHANNELS 3 Zrotation Yrotation Xrotation
					JOINT RightToeBase
					{
						OFFSET -0.200000 -0.500000 1.950000
						CHANNELS 3 Zrotation Yrotation Xrotation
						End Site
						{
							OFFSET 0.000000 0.000000 0.000000
						}
					}
				}
			}
		}
	}
	JOINT LowerBack
	{
		OFFSET 0.000000 0.000000 0.000000
		CHANNELS 3 Zrotation Yrotation Xrotation
		JOINT Spine
		{
			OFFSET -0.087000 1.940000 -0.288900
			CHANNELS 3 Zrotation Yrotation Xrotation
			JOINT Spine1
			{
				OFFSET 0.000000 1.950000 0.060000
				CHANNELS 3 Zrotation Yrotation Xrotation
				JOINT Neck
				{
					OFFSET 0.000000 0.000000 0.000000
					CHANNELS 3 Zrotation Yrotation Xrotation
					JOINT Neck1
					{
						OFFSET 0.000000 1.600000 0.340000
						CHANNELS 3 Zrotation Yrotation Xrotation
						JOINT Head
						{
							OFFSET 0.000000 1.667000 -0.240000
							CHANNELS 3 Zrotation Yrotation Xrotation
							End Site
							{
								OFFSET 0.000000 0.000000 0.000000
							}
						}
					}
				}
				JOINT LeftShoulder
				{
					OFFSET 0.000000 0.000000 0.000000
					CHANNELS 3 Zrotation Yrotation Xrotation
					JOINT LeftArm
					{
						OFFSET 2.700000 1.550000 -0.730000
						CHANNELS 3 Zrotation Yrotation Xrotation
						JOINT LeftForeArm
						{
							OFFSET 5.450000 0.000000 0.000000
							CHANNELS 3 Zrotation Yrotation Xrotation
							JOINT LeftHand
							{
								OFFSET 3.450000 0.000000 0.000000
								CHANNELS 3 Zrotation Yrotation Xrotation
								JOINT LeftHandIndex1
								{
									OFFSET 0.750000 0.000000 0.000000
									CHANNELS 3 Zrotation Yrotation Xrotation
									End Site
									{
										OFFSET 0.000000 0.000000 0.000000
									}
								}
							}
						}
					}
				}
				JOINT RightShoulder
				{
					OFFSET 0.000000 0.000000 0.000000
					CHANNELS 3 Zrotation Yrotation Xrotation
					JOINT RightArm
					{
						OFFSET -2.700000 1.550000 -0.730000
						CHANNELS 3 Zrotation Yrotation Xrotation
						JOINT RightForeArm
						{
							OFFSET -5.450000 0.000000 0.000000
							CHANNELS 3 Zrotation Yrotation Xrotation
							JOINT RightHand
							{
								OFFSET -3.450000 0.000000 0.000000
								CHANNELS 3 Zrotation Yrotation Xrotation
								JOINT RightHandIndex1
								{
									OFFSET -0.750000 0.000000 0.000000
									CHANNELS 3 Zrotation Yrotation Xrotation
									End Site
									{
										OFFSET 0.000000 0.000000 0.000000
									}
								}
							}
						}
					}
				}
			}
		}
	}
}
MOTION
Frames: 12
Frame Time: 0.016667
0.443440 16.721310 -2.206870 -6.988808 -9.969718 10.071340 -14.846339 11.571563 3.484966 25.339365 0.514125 -15.547600 1.106445 2.837849 -5.038778 -0.505404 3.157397 3.078795 2.470840 2.789980 2.180520 18.663227 -10.044900 3.352160 -10.518857 8.253526 -22.391750 15.702759 -3.183377 6.883582 -0.848779 -2.868225 2.923306 1.196270 -0.473880 0.377510 -4.687847 0.507859 -7.903065 30.884300 -5.616302 11.783453 -10.811234 -5.511712 15.338369 11.170137 -8.180455 -10.542584 -12.538448 14.635234 16.000475 13.581410 11.511100 -49.237820 -19.395729 -21.844291 10.968983 -70.514576 -10.973232 -10.689675 -4.545172 -35.014806 -4.415811 -2.194537 2.926599 1.086640 -0.504780 1.174730 0.322110 -1.708906 30.486497 -1.919412 -9.425093 33.062300 -13.285922 -39.619805 -7.810992 -4.407088 3.426995 -2.041222 0.461830 0.023600 -1.638930 0.283180 
0.398230 16.747400 -2.166490 -5.734199 -10.678902 12.587345 -14.832306 11.399693 3.254059 23.794814 0.158738 -17.186670 1.657842 2.360726 -4.339889 -0.711228 2.801254 3.046235 2.987650 3.358060 2.687470 18.728233 -10.076163 3.399031 -11.353939 8.170713 -24.475246 15.143574 -2.869516 5.777361 -1.485816 -2.353289 2.581655 1.374820 -0.686170 0.666780 -4.830961 0.922256 -7.585981 27.290242 -3.902525 8.243083 -8.248084 -5.941923 13.935783 8.641010 -6.938008 -7.359160 -11.867098 23.504280 11.887601 13.631340 19.066050 -61.280730 -21.481335 -18.945364 10.164976 -70.850201 -9.016715 -9.161752 -4.969835 -32.637275 -4.609729 -2.238449 2.862670 1.379300 -0.785630 1.738430 0.328980 5.712215 26.232910 -5.508931 -5.468072 40.804232 -10.794743 -44.851773 -1.112685 -6.020052 3.007393 -1.822127 0.785010 0.280950 -1.597140 0.257020 
0.359510 16.780300 -2.149970 -4.537257 -11.566965 13.503608 -14.871594 11.508088 3.098345 22.514496 -0.088567 -17.697063 2.129920 2.090965 -3.617423 -0.778170 2.579604 3.020115 3.220680 3.588720 3.026430 18.708715 -10.000909 3.381423 -12.071447 7.836158 -25.167920 14.647590 -2.804922 5.211239 -1.880491 -2.055268 2.291519 1.395990 -0.881890 0.896410 -4.757847 0.602280 -7.406001 24.399973 -3.418713 6.548561 -6.789072 -6.377296 13.220832 6.627827 -6.087725 -6.070349 -11.571020 28.453715 10.502884 12.457010 23.345150 -69.138150 -22.907145 -18.771015 10.202550 -69.822609 -8.226007 -7.991394 -4.528102 -30.050276 -4.790419 -2.203962 2.844996 1.603010 -0.989850 2.152680 0.276390 11.182922 25.020231 -7.365524 -2.102492 44.071682 -8.281691 -47.318201 5.928213 -7.815416 2.878905 -1.611941 0.980070 0.325910 -1.595380 0.237530 
0.326270 16.788810 -2.144930 -4.432783 -12.607851 13.811766 -14.910548 11.570070 3.017486 22.687489 -0.067630 -17.459792 2.378042 2.073614 -3.019091 -0.816202 2.591834 2.955574 3.317500 3.696560 3.156970 18.692804 -9.891789 3.352863 -12.049939 7.664601 -24.988283 14.529945 -2.676417 4.403985 -2.031235 -1.972300 2.154460 1.435550 -0.960820 0.998260 -4.699996 0.281921 -7.323654 23.150639 -3.211491 5.478762 -5.272195 -6.751214 13.958929 4.657672 -5.331552 -6.352589 -10.923721 30.337999 10.158687 12.330320 25.266310 -71.311230 -21.864009 -20.989046 10.787705 -70.177277 -9.258012 -6.675470 -4.575029 -27.571308 -4.838140 -2.189763 2.859739 1.693070 -1.052950 2.322620 0.253350 14.084411 26.034238 -7.091127 -1.202750 43.515637 -7.994145 -49.500864 11.842035 -9.772051 2.785902 -1.517449 1.044820 0.318930 -1.611370 0.234400 
0.315420 16.806290 -2.157830 -4.777946 -13.481314 12.784184 -14.960030 11.728184 3.018058 23.341654 0.162338 -16.056079 2.273536 2.245878 -3.022989 -0.746144 2.733715 2.890028 3.338100 3.723010 3.226260 18.654491 -9.745962 3.239996 -11.434320 7.283647 -23.206998 14.150296 -2.569691 3.548355 -2.104693 -1.941067 2.127383 1.415830 -1.025990 1.022040 -4.585255 -0.351288 -7.295353 23.044079 -3.599597 5.817058 -4.586330 -7.491188 16.406148 3.105203 -4.969600 -7.790698 -10.474979 30.467143 11.358229 11.510990 26.482660 -72.851100 -19.730265 -26.266015 11.989708 -69.194372 -12.478747 -4.763756 -5.264328 -24.267200 -4.488013 -2.129169 2.920825 1.719750 -1.095230 2.403870 0.235870 14.811664 29.664414 -5.572192 -2.529750 41.120032 -10.096206 -52.108083 15.402206 -11.563469 2.749699 -1.475240 1.083270 0.291130 -1.640660 0.227360 
0.301560 16.822190 -2.164640 -5.150199 -13.934880 11.835458 -14.988301 11.842325 3.076533 23.949341 0.274672 -14.927789 2.197781 2.375407 -3.364579 -0.589911 2.810629 2.875296 3.324830 3.714850 3.259120 18.626888 -9.684861 3.130116 -10.651351 6.810393 -21.636993 13.816689 -2.657803 3.478651 -2.122406 -1.941259 2.152717 1.360600 -1.078480 1.028730 -4.500105 -0.772820 -7.315920 22.771385 -3.808727 6.444436 -3.868393 -8.081126 17.668455 2.225122 -4.246115 -8.748743 -9.132240 30.286385 12.985263 11.577360 27.727610 -73.875970 -18.702133 -29.569505 12.732058 -67.757975 -14.520709 -3.239207 -5.895952 -21.785459 -3.901520 -2.054047 2.985716 1.701710 -1.124520 2.448440 0.237280 15.303219 31.636202 -4.381520 -1.186128 39.610843 -10.912868 -55.155633 18.288506 -13.529154 2.773509 -1.474741 1.124730 0.215340 -1.711530 0.244580 
0.289930 16.822800 -2.189320 -5.513944 -14.826986 11.309035 -15.008904 11.921686 3.112284 24.491218 0.346022 -13.940274 2.249937 2.496138 -3.595600 -0.365972 2.839300 2.873715 3.301320 3.721970 3.250760 18.604378 -9.632344 3.092751 -10.100207 6.672300 -20.885531 14.018090 -2.716180 3.755000 -2.090851 -1.980319 2.175326 1.314250 -1.115630 1.037100 -4.439362 -1.045480 -7.364351 22.337789 -3.856101 6.887989 -2.972669 -8.538059 19.133342 1.646608 -3.542336 -10.020887 -7.778332 29.742013 14.334499 11.913960 28.334280 -72.514300 -17.410079 -33.087817 13.629834 -66.900704 -16.200427 -2.312965 -5.676420 -20.378045 -3.494577 -2.010314 3.129933 1.564700 -1.113780 2.438770 0.239690 14.977344 34.127141 -2.748279 -0.100534 37.573932 -12.182192 -58.906668 21.478252 -16.402888 2.818655 -1.543291 1.213800 0.097410 -1.778680 0.294160 
0.251030 16.845510 -2.175220 -5.337049 -16.105981 11.964424 -15.042609 12.032336 3.066424 23.964589 0.256459 -13.478175 2.707510 2.371775 -3.715889 -0.495442 2.858632 2.814195 3.383710 3.778590 3.437290 18.586897 -9.548564 3.044378 -9.609947 6.588346 -21.524101 13.463950 -2.819746 4.023092 -2.290656 -1.742088 2.067162 1.313980 -1.223220 1.149520 -4.380469 -1.429083 -7.271355 20.941360 -3.448818 5.852127 -2.054568 -8.533638 19.357214 -0.020537 -2.839235 -9.890522 -7.087241 33.045592 14.108827 8.948130 30.757740 -78.573920 -19.044661 -33.966285 13.783638 -66.182050 -15.766612 -0.903258 -4.203685 -18.072627 -3.481028 -2.016922 3.033181 1.769370 -1.207340 2.669220 0.189930 19.699043 34.058952 -2.766764 3.788129 38.618235 -10.369261 -62.851168 27.690947 -19.568596 2.664556 -1.284940 1.241980 0.163660 -1.738400 0.218250 
0.219300 16.858560 -2.169240 -5.186170 -17.832348 12.580622 -15.053706 12.181258 2.950647 23.196863 0.199117 -13.197524 3.572807 2.223500 -3.216970 -0.628796 2.801961 2.780387 3.439290 3.841860 3.553740 18.578627 -9.545162 3.036626 -9.290907 6.683843 -22.742359 12.802459 -2.930221 4.952894 -2.409867 -1.560673 1.952287 1.346900 -1.293500 1.250400 -4.365265 -1.667547 -7.151957 19.934496 -3.150028 4.820870 -1.631392 -8.366133 19.786052 -1.269009 -2.629251 -9.962884 -7.199800 35.634286 13.459893 6.426150 31.763680 -81.948220 -20.832975 -34.570710 13.977253 -65.085646 -14.698646 -0.370580 -3.228695 -17.174840 -3.550467 -2.043821 2.970035 1.886520 -1.248990 2.833250 0.143310 23.809309 34.429511 -2.502899 7.047358 39.438563 -8.620137 -66.049562 32.767458 -22.566980 2.548730 -1.093601 1.268050 0.197840 -1.699310 0.182180 
0.186450 16.849020 -2.162040 -4.758909 -18.470605 12.925638 -15.083997 12.258277 2.897075 22.507430 0.024874 -13.191047 4.131860 2.052774 -3.200048 -0.750336 2.761645 2.739463 3.510920 3.930090 3.662560 18.555813 -9.499090 3.020963 -9.672185 6.626151 -23.507916 13.030481 -3.139735 5.742640 -2.496844 -1.557615 1.818180 1.418640 -1.358100 1.326620 -4.299407 -1.888764 -7.062643 18.477097 -2.971383 3.782154 -0.471410 -8.592272 19.686103 -2.538178 -2.155378 -9.557340 -6.844071 37.914409 12.731286 4.151640 32.110130 -83.191080 -20.217790 -33.988337 13.498547 -66.502879 -14.926522 0.791087 -2.577926 -15.606761 -3.546509 -2.110614 2.941756 1.940820 -1.252570 2.944760 0.105340 25.711974 33.512163 -2.424943 11.516694 40.470514 -6.165219 -69.045726 36.064069 -25.475163 2.428975 -0.985526 1.292250 0.209830 -1.685910 0.148450 
0.153080 16.846970 -2.152140 -4.836379 -19.842250 13.290342 -15.089778 12.348797 2.837830 22.195393 -0.044565 -12.561904 4.716791 1.969251 -3.051182 -0.749549 2.754003 2.728520 3.521110 3.929390 3.710320 18.550754 -9.494537 3.022623 -9.129273 6.616323 -24.005757 12.719057 -3.202600 6.153485 -2.573940 -1.451268 1.749478 1.388570 -1.402060 1.406950 -4.293997 -2.036653 -7.005264 17.996433 -2.886329 3.384311 0.026411 -8.474494 19.362264 -3.589101 -2.041027 -9.467617 -6.847913 39.244750 12.489528 3.212310 32.311460 -85.415570 -20.464851 -33.189593 13.001410 -66.969864 -14.769816 1.547769 -2.352453 -14.120248 -3.424996 -2.124024 2.949375 1.998350 -1.297980 3.043880 0.081210 28.011151 32.543809 -1.723143 16.041683 40.669864 -4.087700 -72.636348 40.490698 -29.407526 2.357950 -0.810591 1.337390 0.192930 -1.665490 0.151420 
0.131720 16.850680 -2.146530 -4.900172 -21.215298 13.400164 -15.105269 12.458308 2.776701 22.072294 -0.034719 -11.998931 4.685708 1.964302 -2.405501 -0.765216 2.748420 2.684322 3.539610 3.958530 3.786700 18.535007 -9.439504 3.038088 -8.919600 6.527118 -23.953906 12.732944 -3.151051 5.581357 -2.664833 -1.382677 1.649067 1.383280 -1.484360 1.486330 -4.264972 -2.301414 -6.967341 17.605974 -2.651960 3.006520 0.180148 -8.202365 19.971131 -4.466476 -1.762022 -9.953866 -6.480675 40.574927 12.669639 1.737830 32.921250 -88.098700 -20.837493 -33.746212 12.810634 -66.747807 -15.261358 2.547082 -1.835132 -12.338498 -3.186548 -2.102698 2.947996 2.074610 -1.349190 3.179870 0.037860 29.885330 32.340144 -0.437107 19.694126 40.124480 -3.046706 -77.678021 43.860034 -34.427493 2.317748 -0.646316 1.375630 0.151530 -1.673700 0.146720 
